<?xml version="1.0" standalone="no"?>
<!DOCTYPE svg PUBLIC "-//W3C//DTD SVG 20010904//EN"
 "http://www.w3.org/TR/2001/REC-SVG-20010904/DTD/svg10.dtd">
<svg version="1.0" xmlns="http://www.w3.org/2000/svg"
 width="260.000000pt" height="260.000000pt" viewBox="0 0 260.000000 260.000000"
 preserveAspectRatio="xMidYMid meet">
<metadata>
Created by potrace 1.11, written by Peter Selinger 2001-2013
</metadata>
<g transform="translate(0.000000,260.000000) scale(0.100000,-0.100000)"
fill="#000000" stroke="none">
<path d="M80 1300 l0 -1220 1220 0 1220 0 0 1220 0 1220 -1220 0 -1220 0 0
-1220z m945 712 c106 -27 166 -54 241 -107 154 -110 232 -267 242 -485 13
-328 -110 -569 -351 -684 -170 -81 -299 -101 -594 -93 -111 3 -206 8 -212 12
-17 10 -15 1354 2 1360 38 14 217 23 392 20 160 -2 216 -7 280 -23z m1008
-615 c25 -15 54 -38 65 -52 l20 -25 6 23 c3 12 6 32 6 45 0 21 4 22 86 22 l86
0 -4 -397 c-4 -377 -6 -401 -26 -463 -37 -109 -95 -170 -201 -212 -47 -18 -77
-22 -186 -22 -132 -1 -214 14 -258 47 -18 13 -18 15 2 85 l22 71 44 -19 c63
-27 161 -43 220 -35 116 14 175 82 183 214 l5 75 -34 -33 c-52 -53 -111 -74
-200 -75 -63 0 -86 5 -132 28 -114 55 -183 168 -193 315 -14 189 79 361 229
421 76 30 196 24 260 -13z"/>
<path d="M613 1833 l-23 -4 0 -489 0 -488 23 -6 c38 -10 169 -6 248 8 248 44
379 221 379 510 0 161 -33 257 -118 348 -50 54 -136 99 -220 117 -50 10 -242
13 -289 4z"/>
<path d="M1876 1270 c-16 -5 -44 -24 -62 -41 -48 -47 -69 -108 -69 -204 1 -69
5 -87 30 -133 31 -57 69 -87 126 -97 81 -15 171 43 190 121 12 55 10 213 -4
249 -36 92 -118 132 -211 105z"/>
</g>
</svg>
